<svg width="95" height="406" viewBox="0 0 95 406" fill="none" xmlns="http://www.w3.org/2000/svg">
<rect width="95" height="406" rx="4" fill="white"/>
<path d="M27.2269 221.601C30.3528 227.153 33.688 233.045 37.074 238.147C37.4898 238.774 37.926 238.456 38.0941 238.602C38.5544 238.998 38.1828 239.617 38.4342 239.955C39.6527 241.594 40.6739 243.186 41.8122 244.805C41.9619 245.018 42.1079 245.176 42.2507 245.291L42.0014 244.796C42.9511 245.746 43.8542 244.557 44.4499 245.003C45.7883 245.989 43.2901 245.785 43.0908 246.514C43.9261 247.988 44.8851 249.419 45.8526 250.811C45.8513 250.356 45.8435 249.895 45.8304 249.443C46.1946 250.079 46.9639 250.86 46.9266 249.514C47.1876 249.686 47.4638 249.828 47.7236 250.004C47.0495 250.431 47.5754 251.606 47.2125 251.927C46.8482 252.248 46.6113 251.547 46.5778 251.571C46.0759 251.888 48.1581 254.164 48.3187 254.318C48.7364 254.736 49.3743 253.839 49.5417 254.29C49.8344 255.07 47.8099 255.527 50.6815 255.254C50.1282 256.049 50.5446 255.877 50.8618 256.337C50.9032 256.397 50.4364 256.586 50.4402 256.62C50.519 257.543 51.025 256.526 51.0714 256.506C51.8611 256.167 51.9582 257.14 52.1225 257.269C54.1649 258.872 55.616 260.042 57.0158 262.114C57.3193 262.562 57.7804 264.159 58.1432 264.547C58.5031 264.929 58.927 264.407 59.3127 264.509C58.6475 265.132 58.3886 265.54 58.5502 265.846C58.5948 265.965 58.8234 266.24 58.9028 266.339C59.1673 266.601 59.6588 266.746 60.2931 266.683C60.1032 267.839 60.5288 267.1 61.1673 267.648C61.6985 268.103 62.3652 269.703 63.3063 268.847C62.5747 268.707 62.8085 268.235 62.0958 267.626C61.9407 267.523 59.8891 266.511 59.7982 265.457C59.7704 265.422 59.6903 265.326 59.6747 265.284C59.7339 265.079 59.8571 264.925 60.0762 264.862C60.2121 264.823 60.3124 264.857 60.3872 264.928L60.3656 264.898C60.6399 265.035 60.903 265.576 60.9795 265.526C61.4745 265.108 61.5344 264.252 61.1469 264.237C61.12 264.385 61.1177 264.553 61.1208 264.715C60.8439 264.728 60.7639 264.61 60.792 264.478L60.9228 264.661C61.1142 264.229 62.3665 263.904 60.3181 264.253C59.9896 264.311 59.7108 264.495 59.336 264.507C59.4455 264.414 59.8448 264.431 59.8225 264.251C59.7984 264.066 59.0607 264.077 59.5315 263.778C60.2141 263.337 60.2661 264.131 60.3314 264.156C60.3273 264.159 60.3233 264.162 60.3192 264.165C60.9206 264.398 60.5047 263.477 60.5487 263.399C60.8512 262.889 61.2951 262.901 61.4419 262.285C61.5269 261.936 61.0796 261.393 61.0258 261.132C60.9755 260.873 61.4985 261.038 61.49 260.849C61.4824 260.662 61.127 260.615 61.1153 260.393C61.1114 260.298 61.4882 260.098 61.4818 260.055C61.4164 259.59 60.7749 260.268 60.6309 259.89C60.5397 259.647 60.8467 258.487 61.3514 258.895C61.2869 258.599 61.2095 258.327 61.1297 258.043C61.3281 258.14 61.4932 258.262 61.708 258.343C61.2726 257.972 61.7932 257.405 61.6791 257.085C61.5622 256.761 60.6536 256.928 60.8477 256.395C61.2642 255.27 61.8378 257.177 62.0968 257.311C62.1982 257.363 62.6248 256.715 62.6147 256.656C62.5692 256.396 61.9982 256.377 61.9254 256.2C61.6661 255.56 62.0329 254.885 61.8351 254.256C61.1599 252.116 60.2006 249.599 59.3881 247.739C59.0833 247.045 58.231 246.981 58.0933 246.669C57.7751 245.943 58.2972 245.569 58.0169 244.94C57.6032 244.007 56.4728 242.963 55.9965 242.245C55.6651 241.746 55.9944 241.005 55.9423 240.859C55.7117 240.201 55.4435 239.511 55.1618 238.816C55.1004 238.712 54.9596 238.376 54.8901 238.277C54.1412 236.795 53.3031 235.336 52.6764 234.241C52.2366 233.472 51.4287 233.457 51.3553 233.29C51.0361 232.573 51.6508 232.456 51.2787 231.938C51.0777 231.658 50.5577 231.891 50.5154 231.863C50.151 231.611 50.7477 231.167 50.6091 230.885C49.8123 229.258 48.5107 228.021 47.541 226.539C47.4703 226.432 47.1951 226.61 47.1668 226.53C47.0525 226.183 47.5802 226.06 47.421 225.721C47.0921 225.016 46.609 224.376 46.1334 223.71C46.0861 223.644 45.706 223.829 45.6104 223.67C45.5148 223.51 45.7848 223.184 45.6161 222.946C45.1775 222.327 44.3802 221.924 43.9483 221.252C43.8771 221.14 44.2298 220.741 44.1223 220.572C43.7854 220.039 42.925 219.493 42.6358 219.037C41.7007 217.56 41.1291 216.012 40.3257 214.603C40.1338 214.268 39.5585 214.208 39.4511 214.041C39.2102 213.665 39.7641 213.742 39.5418 213.345C37.7518 210.14 35.8071 206.954 34.6432 203.958C34.1823 202.804 34.2361 201.285 34.1093 201.033C34.046 200.956 33.4408 200.993 33.4294 201.071C33.4197 201.172 33.6011 201.398 33.7375 201.698C33.9841 201.559 34.2359 201.415 34.3715 201.095C34.594 200.568 34.0443 199.703 34.2829 199.149C34.5218 198.598 35.3314 198.596 35.6476 198.007C35.9072 197.523 35.8639 196.693 36.1449 196.182C36.9368 194.732 37.8056 193.371 38.5524 192.473C41.3857 188.751 43.7091 185.004 45.6903 181.033C46.7031 178.996 48.1026 176.938 48.6895 174.592C48.7443 174.371 47.944 174.259 48.4442 173.754C48.7136 173.484 49.5272 173.384 50.0128 172.679C50.6795 171.711 51.2882 170.692 51.8713 169.652C53.8871 166.069 55.5347 162.158 57.9451 158.942C62.705 152.59 71.3413 149.441 69.5674 139.618C69.4855 139.129 67.9626 138.07 67.432 137.886C67.601 138.268 67.8339 138.684 68.0369 139.103C66.1045 137.818 66.5916 138.168 66.1781 139.003C65.9235 139.521 65.4393 138.55 65.0332 138.607C64.5078 138.675 62.4678 139.419 63.8904 140.085C63.6117 140.011 63.3458 139.939 63.0738 139.866C62.0712 140.774 60.9842 141.572 59.8506 142.359C59.6543 142.494 59.2631 142.216 59.062 142.359C58.5198 142.74 58.4777 143.329 58.0583 143.822C57.8307 144.09 57.3534 143.804 57.1115 144.198C56.8709 144.592 57.4845 145.02 56.458 145.056C55.9329 144.176 55.4239 146.058 55.0053 146.554C54.9451 146.626 53.8104 146.773 53.6543 147.166C53.4962 147.558 53.5805 148.379 52.9682 148.727C52.6801 148.89 52.0365 148.667 51.8229 148.911C51.673 149.082 52.0003 149.637 51.8581 149.887C51.7156 150.138 50.9723 150.376 50.9008 150.467C50.6433 150.789 51.2375 150.646 51.0967 150.889C50.4127 152.059 49.7202 153.481 48.7535 154.432C48.6344 154.55 48.3584 154.093 48.3327 154.102C47.2207 154.7 48.0753 154.554 48.2694 155.044C48.458 155.514 47.094 157.16 46.3867 156.707C47.2311 157.339 46.2972 157.294 46.2047 157.378C45.843 157.71 46.6583 158.128 46.1667 158.363C45.9876 158.449 45.6551 157.834 45.5697 157.996C45.3598 158.397 45.9646 159.278 45.7202 159.831C45.6614 159.965 45.2702 159.758 45.1396 159.985C45.0094 160.211 44.874 161.402 44.3691 160.477C44.6305 161.437 44.2225 161.315 43.8228 161.963C43.7253 162.124 44.1819 162.723 43.7749 162.943C43.6375 163.017 43.067 162.639 42.9507 162.806C42.7891 163.037 42.8414 163.391 42.8556 163.743C42.861 164.002 42.8452 164.264 42.7154 164.484C42.1363 165.473 41.0605 166.228 40.5739 167.327C40.4423 167.626 41.0668 167.926 40.8279 168.329C40.7911 168.387 39.987 168.547 39.8621 168.851C39.7865 169.034 39.6062 170.11 39.5277 170.3C39.3957 170.613 38.7993 170.312 38.8125 170.537C38.8499 171.186 39.9069 171.342 38.4316 171.176C38.9515 171.747 38.6916 172.025 39.4057 172.608C38.44 172.264 39.1095 173.011 38.6031 173.191C38.0961 173.372 36.2641 172.643 37.9865 173.829C37.6673 173.862 36.8596 174.344 36.7582 174.448C36.4636 174.754 37.0717 174.869 36.8407 175.094C36.8005 175.134 36.4954 174.877 36.342 175.199C36.2419 175.41 35.3683 176.866 35.3606 176.98C35.2766 178.288 36.0262 176.652 36.521 176.664C36.4488 176.568 36.376 176.471 36.3065 176.372C36.4177 175.839 37.0228 176.557 37.0766 176.863C37.1304 177.17 36.5643 177.328 36.7114 177.647C36.7858 177.806 37.7261 178.32 37.7699 178.004C37.8856 178.443 38.4058 178.264 38.604 178.533C38.8212 178.827 38.1703 180.072 37.6664 179.765C37.7867 179.533 37.9758 179.268 38.0952 179.03C37.4066 178.196 33.8828 177.239 34.563 178.787C35.0512 179.914 36.3417 179.37 34.7482 180.312C34.8481 180.076 34.881 179.844 34.9662 179.627C34.3278 179.198 34.847 179.961 34.5369 179.995C34.3866 180.009 34.2287 179.238 33.8125 179.56C34.5174 180.503 33.4074 180.192 33.0184 180.781C33.2899 180.719 33.5589 180.659 33.8303 180.596C33.8614 182.038 35.5783 179.815 34.7025 182.033C34.8847 181.812 35.025 181.573 35.2228 181.361C35.49 181.693 36.6088 182.138 36.7542 182.377C37.1359 183.002 36.5435 183.197 36.3799 183.561C36.3076 183.72 36.6346 183.801 36.6284 183.814C36.5304 184.034 36.1633 183.738 36.0258 183.898C35.8543 184.097 35.8255 184.983 35.7156 185.057C35.4323 185.251 34.9424 184.307 34.8676 184.295C34.3832 184.22 34.4692 184.77 33.99 184.432C34.8723 183.819 35.9624 181.139 33.7626 182.787C33.3472 181.68 32.1365 181.155 31.506 181.945C30.984 182.595 31.7131 182.43 31.9589 183.107C31.9897 183.194 31.6069 184.28 31.2362 184.103C32.0427 184.58 32.5309 185.344 33.473 185.67C33.6124 185.717 33.8202 185.299 34.38 185.861C34.6617 186.143 35.2406 186.807 35.6757 187.049C35.3336 186.94 34.9536 186.811 34.5992 186.694C34.1272 187.222 34.3789 187.513 34.6963 188.194C34.484 188.028 33.748 187.1 33.7283 187.743C33.7297 187.777 34.0518 188.025 34.0633 188.365C34.0811 189.054 34.1134 189.227 35.3424 189.54C35.1089 189.653 34.9549 189.776 34.8513 189.909C34.4853 190.373 35.0199 191.036 34.3451 191.578C33.116 190.651 33.6356 190.477 34.3895 189.874C34.1099 189.637 33.8222 189.42 33.5426 189.177C33.5218 190.715 33.8176 190.107 32.7942 190.372C32.5408 190.436 32.2325 191.406 31.4863 190.623C31.3099 190.435 31.6484 189.889 31.282 189.762C31.2103 189.736 30.6618 190.346 30.7183 190.456C31.4029 191.794 32.8295 190.812 31.4153 192.697C31.3761 192.75 30.9632 192.581 30.8536 192.67C30.6481 192.84 31.1172 193.055 30.9218 193.2C30.7268 193.343 29.9691 193.342 30.4336 193.89C31.2874 194.872 32.4232 193.902 32.1131 193.116C33.5507 193.535 32.0153 197.356 31.843 197.592C30.9281 198.485 31.8671 196.795 31.5113 196.558C31.3573 196.46 29.2231 195.678 30.778 195.736C31.2366 195.759 31.5609 196.524 31.9128 196.276C32.2647 196.031 31.5907 195.922 31.5564 195.881C31.4388 195.74 31.81 195.475 31.74 195.396C30.696 194.145 28.6496 193.391 31.2498 195.543C30.4084 195.7 29.7143 194.303 29.0468 194.653C28.2301 195.095 29.0255 195.942 29.0403 196.037C29.2075 197.21 28.1853 195.56 28.2168 196.94C28.2424 197.702 29.5089 196.26 28.8981 197.762C28.4003 199.025 28.1249 198.172 26.9537 197.903C26.6802 197.84 26.1198 198.474 26.5545 197.509C26.8603 197.576 27.2683 197.649 27.5619 197.676C27.4219 197.368 26.0783 196.467 26.0727 196.315C26.0476 195.586 26.8011 195.89 26.038 195.19C26.9235 195.811 26.4881 195.162 26.7559 195.073C27.7439 194.748 27.7184 195.654 27.2659 193.928C27.6511 194.284 28.0386 194.613 28.4298 194.954C28.5062 194.801 28.5827 194.651 28.6606 194.498C27.7477 193.872 28.2295 193.056 26.9068 193.432C27.0039 192.368 27.3977 192.071 28.251 192.209C28.414 192.236 28.5342 192.123 28.621 191.968C28.8218 192.096 29.4681 192.434 29.5606 192.445C30.3738 192.551 29.3024 191.641 28.7792 191.537C28.8095 191.414 28.8257 191.312 28.8292 191.275C28.8518 191.04 28.2419 191.234 28.1742 191.002C28.1515 190.925 28.5201 190.399 28.3569 190.302C27.3071 189.688 27.5836 191.049 27.9578 188.79C28.9551 189.273 28.285 190.032 29.4515 190.346C30.6927 190.699 29.4452 189.429 30.8665 190.072C30.6628 189.912 30.4851 189.793 30.2488 189.619C31.2406 189.235 30.1338 188.581 30.0261 188.203C29.92 187.848 30.1997 187.185 30.5015 186.896C30.7155 186.699 30.9386 186.712 30.9928 187.236C31.0031 187.407 30.9944 187.633 30.9713 187.916C31.1328 187.797 31.2786 187.663 31.426 187.536C31.5114 187.465 31.5975 187.394 31.6888 187.327C29.8115 185.958 30.4816 186.625 30.943 185.308C31.0432 185.018 30.2494 184.368 31.4189 184.799C30.4061 184.175 31.4904 183.838 31.4144 183.69C30.915 182.742 28.7637 183.632 30.3688 185.007C29.5077 184.819 30.4035 185.427 30.08 185.647C29.7512 185.871 29.5461 185.909 29.5601 186.243C29.5525 186.404 29.5792 186.629 29.6592 186.94C29.1373 186.936 29.1908 186.532 29.3345 186.087C29.4809 185.505 29.7657 184.873 28.3896 185.27C28.339 185.284 28.2863 185.302 28.2316 185.323C25.774 186.52 21.7884 193.596 20.338 197.864C19.4379 201.118 19.8788 202.569 19.9031 203.451C21.0635 210.454 22.2537 212.279 24.3251 216.403C24.5235 216.79 26.0054 219.725 26.8172 218.496C26.9303 218.317 26.6985 216.864 28.165 217.415C27.5195 217.493 27.5161 218.298 27.4905 218.382C26.8788 220.243 26.2007 219.763 27.2269 221.601ZM40.3291 221.039C38.7203 218.903 40.4625 220.14 41.8731 218.668C42.0494 218.956 42.2262 219.244 42.405 219.535C42.2533 219.521 42.1026 219.507 41.9511 219.493C41.9509 219.493 41.9507 219.492 41.9505 219.492C41.4093 220.006 40.8702 220.525 40.3291 221.039ZM62.6721 258.703C62.8477 258.485 63.0259 258.271 63.1926 258.049C62.9489 257.771 62.71 257.499 62.4664 257.223C62.3334 257.345 62.1979 257.467 62.0648 257.589C62.2742 257.954 62.4853 258.322 62.6721 258.703ZM32.5189 192.921C32.0756 192.188 33.2048 192.792 32.9603 191.988C33.7661 192.489 34.5534 192.982 35.3559 193.471C35.0412 193.784 34.6719 193.72 34.6788 194.248C34.4268 194.069 34.1745 193.886 33.9217 193.705C34.0154 193.66 34.1189 193.616 34.205 193.57C33.4944 193.082 33.0359 193.751 32.5165 192.922C32.5173 192.922 32.5181 192.922 32.5189 192.921ZM35.2201 189.078C35.2748 188.781 35.4968 187.619 35.902 187.715C37.2949 188.027 34.866 190.131 37.1212 188.892C37.2704 189.004 37.4282 189.097 37.5818 189.199C37.4027 189.586 37.216 189.964 37.0202 190.344C36.4252 189.911 35.8167 189.515 35.2201 189.078ZM35.6531 212.736C35.3705 212.441 35.0211 210.453 36.0576 210.609C36.3551 210.646 35.7002 211.973 35.9001 212.23C36.0291 212.397 36.4968 211.876 36.481 212.353C36.2169 212.477 35.9284 212.622 35.6543 212.734C35.6539 212.735 35.6535 212.736 35.6531 212.736ZM32.6563 215.258C32.5505 214.824 32.4739 214.373 32.3827 213.942C33.1895 213.854 33.0603 214.623 34.0056 214.146C34.0195 214.005 34.0342 213.865 34.049 213.725C33.8034 213.758 33.5583 213.793 33.3135 213.827C33.6446 213.232 34.0041 213.298 33.5322 212.772C35.1404 212.384 35.9152 212.018 35.056 213.814C35.7099 213.202 38.2868 212.022 36.8246 213.55C36.5539 213.836 36.0966 213.529 36.0397 213.549C35.3523 213.84 35.0737 214.315 34.4198 214.583C34.1243 214.704 33.9774 214.429 33.5695 214.601C33.3706 214.685 32.978 215.242 32.6563 215.258ZM36.356 214.164C36.6863 213.833 37.8311 213.694 37.8318 214.136C37.836 214.827 36.4821 214.494 36.356 214.164ZM62.6724 258.706C62.6723 258.705 62.6722 258.704 62.6721 258.703C62.6715 258.704 62.6708 258.705 62.6701 258.706C62.6709 258.706 62.6717 258.706 62.6724 258.706ZM34.9077 190.46C35.1436 190.455 35.3018 190.366 35.4628 190.332C35.6387 190.27 35.8139 190.259 36.0491 190.443C36.0416 190.243 36.0367 190.043 36.0289 189.842C36.179 189.947 36.3286 190.052 36.4772 190.156C36.3869 190.388 36.2971 190.619 36.2078 190.849C36.1586 191.02 36.1095 191.198 36.0624 191.379C35.6746 191.078 35.286 190.775 34.9077 190.46ZM37.3599 186.016C37.6281 185.487 38.055 186.351 38.4609 186.458C38.8677 186.565 38.8803 185.944 39.3288 186.306C39.16 186.611 38.9791 186.933 38.804 187.241C38.3324 186.822 37.8338 186.424 37.3606 186.015C37.3604 186.015 37.3601 186.016 37.3599 186.016ZM46.4783 230.054C46.121 229.805 45.6621 230.267 45.8954 229.216C45.8957 229.217 45.896 229.217 45.8963 229.218C46.7219 229.592 47.6105 230.184 47.601 231.149C46.7711 231.054 47.0387 230.448 46.4783 230.054ZM33.6913 194.838C33.1709 194.778 33.0745 193.961 33.5632 194.014C34.3476 194.108 34.4754 194.935 33.6913 194.838ZM50.3083 246.309C49.1921 247.529 47.1298 247.257 47.2793 245.836C47.2932 245.714 48.0725 246.208 48.2433 245.869C48.2602 245.836 48.0412 245.463 48.1901 245.278C48.3389 245.091 48.8359 244.976 48.9512 244.731C49.1524 244.304 48.2486 243.973 48.5886 243.567C48.6345 243.513 49.416 243.612 49.4498 243.624C49.9987 243.845 49.3897 244.592 49.4132 244.655C49.5339 244.978 50.1286 244.638 50.3107 244.647C50.6538 244.664 50.5061 245.054 50.5351 245.062C51.2995 245.269 50.6307 244.275 50.7851 244.024C51.2018 243.352 51.9276 243.445 51.8315 242.359C51.8222 242.256 51.2969 241.225 52.606 242.221C52.8462 238.964 54.0275 243.13 53.9265 243.699C53.874 243.964 53.146 243.954 52.9391 244.199C52.4675 244.763 52.5861 245.275 51.7179 245.649C49.8914 246.434 50.7595 245.246 50.2579 244.972C49.8906 245.203 49.5198 245.403 49.1796 245.668C49.6287 245.295 50.3932 246.221 50.3118 246.308C50.3106 246.308 50.3095 246.309 50.3083 246.309ZM48.9535 238.572C48.1052 238.294 49.215 237.71 48.2914 237.54C49.0006 236.516 49.4613 237.469 49.5783 237.547C50.1046 237.896 51.1623 237.281 51.1201 237.97C50.3922 238.154 49.6763 238.375 48.9535 238.572ZM52.0851 243.585C52.4718 242.922 52.7954 243.625 52.9186 243.601C54.2237 243.35 53.0109 241.381 52.0851 243.585ZM32.2448 211.707C32.1043 211.53 32.7082 211.374 32.7784 211.119C32.8487 210.863 32.0918 210.523 32.4336 210.36C32.7829 210.213 34.1931 210.813 33.8436 209.66C34.0519 209.601 34.1871 209.517 34.3674 209.447C34.5187 209.733 34.6755 210.018 34.8331 210.309C34.2064 210.43 33.5491 210.561 32.9432 210.676C32.5949 211.064 33.199 210.872 33.2034 210.88C33.2028 210.881 33.2023 210.881 33.2017 210.881C33.3173 211.212 32.5617 212.107 32.2448 211.707ZM42.6214 225.914C41.3512 226.754 42.5364 225.427 42.587 225.145C42.6369 224.863 42.0014 224.898 42.6202 224.657C43.1868 224.724 42.7631 225.821 42.6197 225.915C42.6203 225.915 42.6208 225.915 42.6214 225.914ZM47.1584 235.453C47.1978 234.788 47.5834 234.664 46.8502 234.306C47.1806 234.142 47.518 233.975 47.8437 233.814C48.124 234.278 47.1835 234.784 47.8686 235.106C47.9814 235.159 48.6076 234.54 48.6035 235.078C48.1425 235.19 47.6377 235.327 47.1584 235.453ZM46.9408 232.391C47.2173 232.97 44.9101 234.914 45.4707 233.224C45.5551 232.973 46.7335 231.956 46.9408 232.391ZM34.9619 216.825C34.3621 215.942 35.3752 216.755 35.9117 216.772C35.0083 214.441 35.9372 217.073 37.3867 216.539C37.1614 217.016 36.5856 218 36.0423 217.588C35.8167 217.417 36.2562 217.273 36.247 217.26C35.9061 216.891 35.292 217.31 34.9619 216.825ZM49.4572 239.611C49.4565 239.564 49.9357 239.368 49.9607 239.203C49.9845 239.038 49.5263 238.958 49.7863 238.777C50.0473 238.594 50.5552 238.993 50.4435 239.267C50.3297 239.54 49.4671 240.031 49.4572 239.611ZM46.2933 236.634C46.3419 235.982 48.421 235.793 48.4738 235.902C48.9086 236.851 46.7948 236.303 46.2933 236.634ZM33.4262 220.6C33.6003 218.984 35.5277 218.981 36.7993 219.175C36.6771 219.369 36.5562 219.566 36.4354 219.759C37.2592 218.719 37.8868 217.373 37.9074 219.542C37.1338 218.796 37.2845 219.711 37.2281 219.752C35.3264 220.998 35.4627 219.139 33.4268 220.601C33.4266 220.601 33.4264 220.6 33.4262 220.6ZM50.864 241.086C51.0853 241.593 51.344 243.072 50.1616 242.878C50.3918 242.276 50.6273 241.681 50.864 241.086ZM25.2232 199.89C25.0925 199.662 25.0237 199.431 25.0058 199.199C24.9122 198.826 25.0206 198.5 25.1668 198.109C25.8015 198.855 25.9928 198.547 26.2367 198.438C26.6045 198.271 26.3934 198.881 26.4468 198.899C27.2006 199.11 27.4293 198.757 27.1525 199.637C27.4774 199.493 27.8041 199.356 28.1278 199.219C28.0302 199.617 28.1469 199.885 28.3568 200.158C28.5188 200.293 28.7332 200.419 28.9707 200.555C27.5223 200.039 28.3732 200.504 27.613 200.922C27.2299 201.19 25.4223 200.388 25.2236 199.888C25.2234 199.889 25.2233 199.889 25.2232 199.89ZM32.4857 219.584C32.6578 219.333 32.9163 219.038 33.1235 218.769C33.0784 218.63 33.0304 218.494 32.986 218.356C32.7666 218.461 32.539 218.574 32.3263 218.671C32.1721 218.544 32.5017 218.44 32.5018 218.376C32.5007 218.377 32.4995 218.377 32.4984 218.378C32.4966 217.469 32.2905 217.206 31.3308 217.027C31.9795 216.664 32.6282 216.301 33.277 215.939C33.2828 216.095 33.2914 216.251 33.2997 216.407C32.988 216.668 32.6766 216.929 32.3655 217.19C32.6372 217.224 32.909 217.26 33.1785 217.289C33.1166 217.472 33.0616 217.681 32.9952 217.847C35.1169 217.376 33.174 216.813 33.9158 216.371C34.3977 216.099 35.092 217.371 34.8701 217.751C34.837 217.806 33.3349 218.296 34.3048 218.367C34.4581 218.379 37.37 216.731 35.311 218.584C35.0196 218.848 33.0748 219.638 32.4857 219.584ZM28.8954 215.368C31.1761 215.098 27.7242 213.426 29.905 213.78C30.599 212.988 30.6217 213.059 31.5684 212.981C31.6528 212.973 31.7711 212.619 31.8118 212.622C32.3994 212.705 32.3746 213.199 33.1477 212.789C33.1514 212.894 33.1573 212.993 33.1616 213.099C32.2453 213.137 32.0608 213.965 31.5649 214.51C31.3408 214.758 31.1336 214.58 30.9356 214.793C30.8633 214.872 31.2114 215.091 30.9651 215.242C30.4063 215.582 29.5231 215.807 28.9144 215.694C28.9138 215.694 28.9133 215.694 28.9127 215.695C28.903 215.587 28.9029 215.477 28.8954 215.368ZM39.3999 229.881C40.4873 229.394 41.0687 229.705 41.0062 228.475C41.2338 228.401 41.4605 228.33 41.688 228.256C41.7646 228.424 41.8386 228.587 41.9179 228.756C39.2137 231.025 43.1118 229.878 40.6556 230.588C40.3884 230.665 40.4233 230.139 40.0171 230.881C40.0163 230.881 40.0154 230.881 40.0146 230.88C39.8996 230.253 40.2209 229.973 39.3999 229.881ZM38.0486 226.021C39.4764 223.558 40.2196 226.943 39.3711 226.811C39.2941 226.8 39.0272 225.312 38.0486 226.021ZM41.8518 236.623C41.5033 236.115 42.6388 235.397 43.0872 235.205C43.5368 235.012 43.3315 235.629 43.4251 235.638C43.7334 235.665 43.6835 235.252 44.0995 235.278C44.2351 235.287 45.1939 235.975 45.1689 236.047C45.0299 236.446 43.8708 236.66 43.8009 236.792C43.5706 237.222 44.2427 237.229 43.7706 237.59C42.7642 238.36 43.5807 237.14 43.5437 237.035C43.4293 236.721 42.8328 237.103 42.5861 236.963C42.3394 236.822 42.4679 236.562 42.3148 236.401C42.2639 236.347 41.8715 236.648 41.8518 236.623ZM43.2564 233.424C42.7108 234.497 40.9588 233.712 41.068 233.431C41.3951 232.597 43.5158 232.909 43.2564 233.424ZM32.7371 215.66C32.3805 216.536 31.1841 215.612 31.2556 215.12C31.5582 215.036 32.8617 215.363 32.7371 215.66ZM33.6125 220.912C33.5366 220.326 35.3347 220.114 35.5396 220.516C34.7319 221.296 34.7919 220.971 34.604 220.738C34.4162 220.506 33.6711 221.368 33.6125 220.912ZM46.2317 241.79C46.1606 241.696 46.0198 239.618 46.878 240.372C46.9418 240.426 47.4544 241.661 47.354 241.828C47.1548 242.168 46.4211 242.028 46.2317 241.79ZM33.5484 223.988C34.2138 223.258 34.0595 223.021 35.1486 222.686C35.1488 222.686 35.149 222.686 35.1492 222.687C35.0728 221.889 33.1012 223.009 33.0622 222.847C32.9277 222.282 34.586 221.918 34.8677 221.351C34.8462 222.299 35.6678 221.548 36.0351 222.036C36.1168 222.145 35.8358 222.947 35.5286 223.223C35.2208 223.498 34.0325 223.875 33.5484 223.988ZM47.1521 244.155C46.5491 243.717 47.6973 242.55 48.2885 243.252C48.5791 243.595 47.5179 244.418 47.1521 244.155ZM31.2716 185.3C31.5517 185.603 31.8285 185.907 32.1008 186.215C32.3102 186.077 32.5238 185.936 32.7355 185.797C32.5279 185.879 32.3198 185.966 32.1132 186.049C32.2407 185.608 31.7439 185.037 31.2722 185.299C31.272 185.299 31.2718 185.3 31.2716 185.3ZM39.3528 171.912C39.1293 171.54 40.3513 171.841 40.4044 171.932C40.7981 172.615 39.6627 172.429 39.3528 171.912ZM29.1268 216.639C28.6199 216.061 30.5741 215.582 30.9103 215.916C30.4491 215.85 29.4159 216.968 29.1268 216.639ZM36.521 176.664C36.6285 176.808 36.7357 176.953 36.8393 177.103C36.7636 176.784 36.6519 176.668 36.521 176.664ZM44.5883 242.373C44.4032 242.347 43.8949 241.699 44.0004 241.512C44.2245 241.121 45.4738 241.145 45.3716 241.636C45.3616 241.691 44.7728 242.396 44.5875 242.371C44.5878 242.372 44.588 242.372 44.5883 242.373ZM31.1912 184.075C31.2061 184.086 31.2213 184.096 31.2362 184.103C31.2213 184.094 31.2064 184.084 31.1912 184.075ZM46.316 156.653C46.3387 156.673 46.3624 156.692 46.3867 156.707C46.3641 156.69 46.3412 156.671 46.316 156.653ZM40.2755 238.194C38.5395 238.898 39.0713 237.858 40.1127 237.821C40.1683 237.821 40.2388 238.139 40.2755 238.194Z" fill="black"/>
</svg>
