<svg width="95" height="406" viewBox="0 0 95 406" fill="none" xmlns="http://www.w3.org/2000/svg">
<rect width="95" height="406" rx="4" fill="white"/>
<path d="M66.5114 221.601C63.3855 227.153 60.0503 233.045 56.6643 238.147C56.2485 238.774 55.8122 238.456 55.6442 238.602C55.1839 238.998 55.5555 239.617 55.3041 239.955C54.0856 241.594 53.0644 243.186 51.9261 244.805C51.7764 245.018 51.6304 245.176 51.4876 245.291L51.7369 244.796C50.7872 245.746 49.8841 244.557 49.2884 245.003C47.95 245.989 50.4482 245.785 50.6474 246.514C49.8122 247.988 48.8532 249.419 47.8857 250.811C47.8869 250.356 47.8947 249.895 47.9078 249.443C47.5437 250.079 46.7744 250.86 46.8117 249.514C46.5507 249.686 46.2745 249.828 46.0146 250.004C46.6888 250.431 46.1629 251.606 46.5258 251.927C46.8901 252.248 47.127 251.547 47.1605 251.571C47.6624 251.888 45.5802 254.164 45.4195 254.318C45.0019 254.736 44.364 253.839 44.1966 254.29C43.9039 255.07 45.9284 255.527 43.0568 255.254C43.6101 256.049 43.1937 255.877 42.8765 256.337C42.8351 256.397 43.3019 256.586 43.298 256.62C43.2193 257.543 42.7132 256.526 42.6669 256.506C41.8772 256.167 41.7801 257.14 41.6158 257.269C39.5734 258.872 38.1223 260.042 36.7225 262.114C36.419 262.562 35.9579 264.159 35.5951 264.547C35.2351 264.929 34.8113 264.407 34.4256 264.509C35.0908 265.132 35.3497 265.54 35.1881 265.846C35.1435 265.965 34.9148 266.24 34.8355 266.339C34.571 266.601 34.0795 266.746 33.4451 266.683C33.6351 267.839 33.2094 267.1 32.571 267.648C32.0397 268.103 31.373 269.703 30.4319 268.847C31.1636 268.707 30.9298 268.235 31.6425 267.626C31.7976 267.523 33.8492 266.511 33.9401 265.457C33.9679 265.422 34.048 265.326 34.0636 265.284C34.0043 265.079 33.8812 264.925 33.6621 264.862C33.5262 264.823 33.4259 264.857 33.351 264.928L33.3727 264.898C33.0984 265.035 32.8352 265.576 32.7588 265.526C32.2637 265.108 32.2039 264.252 32.5914 264.237C32.6183 264.385 32.6206 264.553 32.6174 264.715C32.8944 264.728 32.9744 264.61 32.9463 264.478L32.8154 264.661C32.6241 264.229 31.3718 263.904 33.4201 264.253C33.7487 264.311 34.0275 264.495 34.4023 264.507C34.2928 264.414 33.8935 264.431 33.9158 264.251C33.9399 264.066 34.6775 264.077 34.2068 263.778C33.5242 263.337 33.4722 264.131 33.4069 264.156C33.4109 264.159 33.415 264.162 33.4191 264.165C32.8177 264.398 33.2336 263.477 33.1896 263.399C32.887 262.889 32.4432 262.901 32.2964 262.285C32.2114 261.936 32.6587 261.393 32.7125 261.132C32.7628 260.873 32.2398 261.038 32.2483 260.849C32.2559 260.662 32.6113 260.615 32.623 260.393C32.6269 260.298 32.2501 260.098 32.2565 260.055C32.3219 259.59 32.9634 260.268 33.1074 259.89C33.1985 259.647 32.8916 258.487 32.3869 258.895C32.4514 258.599 32.5288 258.327 32.6086 258.043C32.4102 258.14 32.2451 258.262 32.0303 258.343C32.4657 257.972 31.9451 257.405 32.0592 257.085C32.176 256.761 33.0847 256.928 32.8906 256.395C32.4741 255.27 31.9005 257.177 31.6414 257.311C31.5401 257.363 31.1135 256.715 31.1236 256.656C31.1691 256.396 31.7401 256.377 31.8128 256.2C32.0721 255.56 31.7054 254.885 31.9031 254.256C32.5784 252.116 33.5377 249.599 34.3502 247.739C34.655 247.045 35.5072 246.981 35.645 246.669C35.9631 245.943 35.4411 245.569 35.7214 244.94C36.135 244.007 37.2655 242.963 37.7418 242.245C38.0732 241.746 37.7439 241.005 37.796 240.859C38.0266 240.201 38.2948 239.511 38.5765 238.816C38.6379 238.712 38.7786 238.376 38.8482 238.277C39.5971 236.795 40.4352 235.336 41.0618 234.241C41.5017 233.472 42.3096 233.457 42.383 233.29C42.7022 232.573 42.0875 232.456 42.4596 231.938C42.6606 231.658 43.1806 231.891 43.2229 231.863C43.5873 231.611 42.9906 231.167 43.1292 230.885C43.926 229.258 45.2276 228.021 46.1973 226.539C46.268 226.432 46.5432 226.61 46.5715 226.53C46.6858 226.183 46.158 226.06 46.3173 225.721C46.6462 225.016 47.1293 224.376 47.6049 223.71C47.6522 223.644 48.0322 223.829 48.1279 223.67C48.2235 223.51 47.9535 223.184 48.1221 222.946C48.5608 222.327 49.3581 221.924 49.79 221.252C49.8612 221.14 49.5084 220.741 49.616 220.572C49.9529 220.039 50.8133 219.493 51.1025 219.037C52.0376 217.56 52.6092 216.012 53.4126 214.603C53.6045 214.268 54.1798 214.208 54.2872 214.041C54.528 213.665 53.9742 213.742 54.1965 213.345C55.9865 210.14 57.9311 206.954 59.0951 203.958C59.556 202.804 59.5022 201.285 59.629 201.033C59.6923 200.956 60.2974 200.993 60.3088 201.071C60.3185 201.172 60.1372 201.398 60.0008 201.698C59.7542 201.559 59.5023 201.415 59.3668 201.095C59.1443 200.568 59.694 199.703 59.4554 199.149C59.2165 198.598 58.4068 198.596 58.0907 198.007C57.8311 197.523 57.8743 196.693 57.5934 196.182C56.8014 194.732 55.9326 193.371 55.1859 192.473C52.3526 188.751 50.0292 185.004 48.0479 181.033C47.0352 178.996 45.6357 176.938 45.0488 174.592C44.994 174.371 45.7943 174.259 45.2941 173.754C45.0247 173.484 44.2111 173.384 43.7255 172.679C43.0588 171.711 42.4501 170.692 41.867 169.652C39.8512 166.069 38.2036 162.158 35.7932 158.942C31.0333 152.59 22.397 149.441 24.1709 139.618C24.2528 139.129 25.7757 138.07 26.3063 137.886C26.1373 138.268 25.9043 138.684 25.7013 139.103C27.6338 137.818 27.1466 138.168 27.5601 139.003C27.8148 139.521 28.2989 138.55 28.7051 138.607C29.2305 138.675 31.2705 139.419 29.8479 140.085C30.1265 140.011 30.3925 139.939 30.6645 139.866C31.6671 140.774 32.7541 141.572 33.8876 142.359C34.084 142.494 34.4751 142.216 34.6763 142.359C35.2185 142.74 35.2606 143.329 35.68 143.822C35.9076 144.09 36.3848 143.804 36.6268 144.198C36.8674 144.592 36.2538 145.02 37.2803 145.056C37.8054 144.176 38.3144 146.058 38.733 146.554C38.7932 146.626 39.9279 146.773 40.084 147.166C40.2421 147.558 40.1578 148.379 40.77 148.727C41.0581 148.89 41.7018 148.667 41.9154 148.911C42.0653 149.082 41.738 149.637 41.8802 149.887C42.0227 150.138 42.766 150.376 42.8375 150.467C43.095 150.789 42.5008 150.646 42.6416 150.889C43.3255 152.059 44.0181 153.481 44.9847 154.432C45.1038 154.55 45.3798 154.093 45.4056 154.102C46.5176 154.7 45.663 154.554 45.4688 155.044C45.2802 155.514 46.6443 157.16 47.3516 156.707C46.5071 157.339 47.4411 157.294 47.5336 157.378C47.8953 157.71 47.08 158.128 47.5716 158.363C47.7507 158.449 48.0831 157.834 48.1685 157.996C48.3785 158.397 47.7737 159.278 48.018 159.831C48.0769 159.965 48.468 159.758 48.5987 159.985C48.7288 160.211 48.8643 161.402 49.3692 160.477C49.1078 161.437 49.5157 161.315 49.9155 161.963C50.013 162.124 49.5564 162.723 49.9633 162.943C50.1008 163.017 50.6713 162.639 50.7876 162.806C50.9491 163.037 50.8969 163.391 50.8826 163.743C50.8773 164.002 50.8931 164.264 51.0229 164.484C51.6019 165.473 52.6777 166.228 53.1643 167.327C53.296 167.626 52.6715 167.926 52.9104 168.329C52.9472 168.387 53.7513 168.547 53.8761 168.851C53.9518 169.034 54.132 170.11 54.2106 170.3C54.3426 170.613 54.9389 170.312 54.9258 170.537C54.8884 171.186 53.8314 171.342 55.3067 171.176C54.7868 171.747 55.0467 172.025 54.3325 172.608C55.2982 172.264 54.6287 173.011 55.1352 173.191C55.6422 173.372 57.4742 172.643 55.7517 173.829C56.071 173.862 56.8787 174.344 56.9801 174.448C57.2747 174.754 56.6666 174.869 56.8976 175.094C56.9378 175.134 57.2429 174.877 57.3963 175.199C57.4964 175.41 58.37 176.866 58.3777 176.98C58.4617 178.288 57.7121 176.652 57.2173 176.664C57.2895 176.568 57.3623 176.471 57.4317 176.372C57.3205 175.839 56.7155 176.557 56.6617 176.863C56.6079 177.17 57.174 177.328 57.0269 177.647C56.9525 177.806 56.0122 178.32 55.9683 178.004C55.8527 178.443 55.3325 178.264 55.1343 178.533C54.9171 178.827 55.568 180.072 56.0719 179.765C55.9516 179.533 55.7625 179.268 55.6431 179.03C56.3317 178.196 59.8555 177.239 59.1753 178.787C58.6871 179.914 57.3966 179.37 58.9901 180.312C58.8901 180.076 58.8573 179.844 58.7721 179.627C59.4104 179.198 58.8913 179.961 59.2013 179.995C59.3517 180.009 59.5096 179.238 59.9258 179.56C59.2209 180.503 60.3309 180.192 60.7199 180.781C60.4484 180.719 60.1794 180.659 59.908 180.596C59.8769 182.038 58.16 179.815 59.0358 182.033C58.8536 181.812 58.7133 181.573 58.5155 181.361C58.2482 181.693 57.1295 182.138 56.9841 182.377C56.6024 183.002 57.1947 183.197 57.3584 183.561C57.4307 183.72 57.1037 183.801 57.1099 183.814C57.2079 184.034 57.575 183.738 57.7124 183.898C57.884 184.097 57.9127 184.983 58.0227 185.057C58.3059 185.251 58.7959 184.307 58.8707 184.295C59.3551 184.22 59.2691 184.77 59.7482 184.432C58.866 183.819 57.7759 181.139 59.9757 182.787C60.3911 181.68 61.6018 181.155 62.2323 181.945C62.7543 182.595 62.0252 182.43 61.7794 183.107C61.7486 183.194 62.1313 184.28 62.5021 184.103C61.6956 184.58 61.2074 185.344 60.2653 185.67C60.1259 185.717 59.9181 185.299 59.3583 185.861C59.0766 186.143 58.4976 186.807 58.0626 187.049C58.4047 186.94 58.7847 186.811 59.1391 186.694C59.611 187.222 59.3594 187.513 59.042 188.194C59.2542 188.028 59.9903 187.1 60.01 187.743C60.0086 187.777 59.6865 188.025 59.675 188.365C59.6572 189.054 59.6248 189.227 58.3959 189.54C58.6294 189.653 58.7833 189.776 58.887 189.909C59.253 190.373 58.7184 191.036 59.3931 191.578C60.6223 190.651 60.1027 190.477 59.3488 189.874C59.6284 189.637 59.9161 189.42 60.1957 189.177C60.2165 190.715 59.9206 190.107 60.9441 190.372C61.1975 190.436 61.5058 191.406 62.252 190.623C62.4283 190.435 62.0899 189.889 62.4563 189.762C62.528 189.736 63.0765 190.346 63.02 190.456C62.3354 191.794 60.9088 190.812 62.323 192.697C62.3622 192.75 62.775 192.581 62.8847 192.67C63.0902 192.84 62.6211 193.055 62.8164 193.2C63.0115 193.343 63.7691 193.342 63.3046 193.89C62.4509 194.872 61.3151 193.902 61.6251 193.116C60.1876 193.535 61.7229 197.356 61.8953 197.592C62.8102 198.485 61.8712 196.795 62.227 196.558C62.3809 196.46 64.5152 195.678 62.9603 195.736C62.5017 195.759 62.1774 196.524 61.8255 196.276C61.4736 196.031 62.1476 195.922 62.1819 195.881C62.2994 195.74 61.9283 195.475 61.9983 195.396C63.0423 194.145 65.0887 193.391 62.4885 195.543C63.3299 195.7 64.024 194.303 64.6915 194.653C65.5082 195.095 64.7128 195.942 64.698 196.037C64.5308 197.21 65.553 195.56 65.5214 196.94C65.4959 197.702 64.2294 196.26 64.8402 197.762C65.338 199.025 65.6134 198.172 66.7846 197.903C67.0581 197.84 67.6185 198.474 67.1838 197.509C66.878 197.576 66.47 197.649 66.1764 197.676C66.3164 197.368 67.66 196.467 67.6656 196.315C67.6907 195.586 66.9372 195.89 67.7002 195.19C66.8148 195.811 67.2502 195.162 66.9824 195.073C65.9944 194.748 66.0199 195.654 66.4724 193.928C66.0872 194.284 65.6997 194.613 65.3085 194.954C65.2321 194.801 65.1556 194.651 65.0776 194.498C65.9906 193.872 65.5087 193.056 66.8314 193.432C66.7344 192.368 66.3406 192.071 65.4873 192.209C65.3243 192.236 65.2041 192.123 65.1172 191.968C64.9165 192.096 64.2702 192.434 64.1776 192.445C63.3645 192.551 64.4359 191.641 64.959 191.537C64.9288 191.414 64.9126 191.312 64.9091 191.275C64.8865 191.04 65.4964 191.234 65.5641 191.002C65.5868 190.925 65.2182 190.399 65.3814 190.302C66.4312 189.688 66.1546 191.049 65.7805 188.79C64.7832 189.273 65.4533 190.032 64.2867 190.346C63.0456 190.699 64.2931 189.429 62.8717 190.072C63.0755 189.912 63.2532 189.793 63.4895 189.619C62.4977 189.235 63.6044 188.581 63.7122 188.203C63.8183 187.848 63.5385 187.185 63.2368 186.896C63.0228 186.699 62.7997 186.712 62.7455 187.236C62.7352 187.407 62.7439 187.633 62.7669 187.916C62.6055 187.797 62.4597 187.663 62.3123 187.536C62.2269 187.465 62.1408 187.394 62.0494 187.327C63.9268 185.958 63.2567 186.625 62.7952 185.308C62.6951 185.018 63.4889 184.368 62.3194 184.799C63.3321 184.175 62.2479 183.838 62.3239 183.69C62.8233 182.742 64.9746 183.632 63.3695 185.007C64.2306 184.819 63.3347 185.427 63.6583 185.647C63.9871 185.871 64.1922 185.909 64.1782 186.243C64.1858 186.404 64.1591 186.629 64.0791 186.94C64.6009 186.936 64.5475 186.532 64.4038 186.087C64.2574 185.505 63.9726 184.873 65.3487 185.27C65.3993 185.284 65.452 185.302 65.5067 185.323C67.9643 186.52 71.9499 193.596 73.4003 197.864C74.3004 201.118 73.8595 202.569 73.8352 203.451C72.6748 210.454 71.4846 212.279 69.4131 216.403C69.2148 216.79 67.7329 219.725 66.9211 218.496C66.808 218.317 67.0398 216.864 65.5733 217.415C66.2188 217.493 66.2221 218.298 66.2478 218.382C66.8594 220.243 67.5376 219.763 66.5114 221.601ZM53.4092 221.039C55.018 218.903 53.2757 220.14 51.8652 218.668C51.6889 218.956 51.5121 219.244 51.3333 219.535C51.485 219.521 51.6357 219.507 51.7872 219.493C51.7874 219.493 51.7876 219.492 51.7878 219.492C52.329 220.006 52.8681 220.525 53.4092 221.039ZM31.0661 258.703C30.8905 258.485 30.7124 258.271 30.5457 258.049C30.7894 257.771 31.0283 257.499 31.2719 257.223C31.4048 257.345 31.5404 257.467 31.6735 257.589C31.464 257.954 31.2529 258.322 31.0661 258.703ZM61.2194 192.921C61.6627 192.188 60.5334 192.792 60.778 191.988C59.9722 192.489 59.1849 192.982 58.3823 193.471C58.6971 193.784 59.0664 193.72 59.0595 194.248C59.3114 194.069 59.5638 193.886 59.8166 193.705C59.7229 193.66 59.6194 193.616 59.5332 193.57C60.2439 193.082 60.7023 193.751 61.2218 192.922C61.221 192.922 61.2202 192.922 61.2194 192.921ZM58.5182 189.078C58.4635 188.781 58.2415 187.619 57.8363 187.715C56.4434 188.027 58.8723 190.131 56.6171 188.892C56.4679 189.004 56.3101 189.097 56.1565 189.199C56.3356 189.586 56.5223 189.964 56.7181 190.344C57.3131 189.911 57.9216 189.515 58.5182 189.078ZM58.0852 212.736C58.3678 212.441 58.7172 210.453 57.6807 210.609C57.3831 210.646 58.0381 211.973 57.8382 212.23C57.7091 212.397 57.2414 211.876 57.2573 212.353C57.5213 212.477 57.8098 212.622 58.084 212.734C58.0844 212.735 58.0848 212.736 58.0852 212.736ZM61.082 215.258C61.1878 214.824 61.2644 214.373 61.3556 213.942C60.5488 213.854 60.678 214.623 59.7327 214.146C59.7187 214.005 59.7041 213.865 59.6893 213.725C59.9349 213.758 60.18 213.793 60.4248 213.827C60.0937 213.232 59.7341 213.298 60.2061 212.772C58.5979 212.384 57.823 212.018 58.6823 213.814C58.0283 213.202 55.4515 212.022 56.9137 213.55C57.1844 213.836 57.6417 213.529 57.6986 213.549C58.386 213.84 58.6646 214.315 59.3184 214.583C59.6139 214.704 59.7609 214.429 60.1688 214.601C60.3677 214.685 60.7603 215.242 61.082 215.258ZM57.3822 214.164C57.052 213.833 55.9072 213.694 55.9065 214.136C55.9023 214.827 57.2562 214.494 57.3822 214.164ZM31.0659 258.706C31.066 258.705 31.0661 258.704 31.0661 258.703C31.0668 258.704 31.0675 258.705 31.0681 258.706C31.0674 258.706 31.0666 258.706 31.0659 258.706ZM58.8305 190.46C58.5946 190.455 58.4365 190.366 58.2754 190.332C58.0996 190.27 57.9244 190.259 57.6892 190.443C57.6967 190.243 57.7016 190.043 57.7093 189.842C57.5592 189.947 57.4097 190.052 57.2611 190.156C57.3514 190.388 57.4412 190.619 57.5305 190.849C57.5797 191.02 57.6288 191.198 57.6759 191.379C58.0637 191.078 58.4523 190.775 58.8305 190.46ZM56.3784 186.016C56.1102 185.487 55.6833 186.351 55.2773 186.458C54.8706 186.565 54.858 185.944 54.4095 186.306C54.5783 186.611 54.7591 186.933 54.9343 187.241C55.4058 186.822 55.9045 186.424 56.3777 186.015C56.3779 186.015 56.3781 186.016 56.3784 186.016ZM47.26 230.054C47.6172 229.805 48.0762 230.267 47.8429 229.216C47.8426 229.217 47.8423 229.217 47.842 229.218C47.0164 229.592 46.1278 230.184 46.1372 231.149C46.9672 231.054 46.6996 230.448 47.26 230.054ZM60.047 194.838C60.5674 194.778 60.6637 193.961 60.1751 194.014C59.3907 194.108 59.2628 194.935 60.047 194.838ZM43.43 246.309C44.5462 247.529 46.6085 247.257 46.459 245.836C46.4451 245.714 45.6657 246.208 45.495 245.869C45.4781 245.836 45.6971 245.463 45.5482 245.278C45.3994 245.091 44.9024 244.976 44.7871 244.731C44.5859 244.304 45.4897 243.973 45.1497 243.567C45.1038 243.513 44.3223 243.612 44.2884 243.624C43.7396 243.845 44.3486 244.592 44.325 244.655C44.2044 244.978 43.6097 244.638 43.4276 244.647C43.0845 244.664 43.2321 245.054 43.2031 245.062C42.4388 245.269 43.1076 244.275 42.9532 244.024C42.5364 243.352 41.8107 243.445 41.9067 242.359C41.9161 242.256 42.4414 241.225 41.1323 242.221C40.8921 238.964 39.7108 243.13 39.8118 243.699C39.8643 243.964 40.5923 243.954 40.7991 244.199C41.2708 244.763 41.1521 245.275 42.0204 245.649C43.8468 246.434 42.9788 245.246 43.4804 244.972C43.8477 245.203 44.2185 245.403 44.5587 245.668C44.1096 245.295 43.3451 246.221 43.4265 246.308C43.4277 246.308 43.4288 246.309 43.43 246.309ZM44.7848 238.572C45.633 238.294 44.5233 237.71 45.4469 237.54C44.7377 236.516 44.277 237.469 44.1599 237.547C43.6337 237.896 42.576 237.281 42.6182 237.97C43.3461 238.154 44.062 238.375 44.7848 238.572ZM41.6532 243.585C41.2665 242.922 40.9429 243.625 40.8197 243.601C39.5146 243.35 40.7274 241.381 41.6532 243.585ZM61.4934 211.707C61.634 211.53 61.0301 211.374 60.9599 211.119C60.8896 210.863 61.6465 210.523 61.3047 210.36C60.9554 210.213 59.5452 210.813 59.8947 209.66C59.6864 209.601 59.5512 209.517 59.3709 209.447C59.2195 209.733 59.0628 210.018 58.9052 210.309C59.5318 210.43 60.1892 210.561 60.7951 210.676C61.1434 211.064 60.5392 210.872 60.5349 210.88C60.5354 210.881 60.536 210.881 60.5366 210.881C60.421 211.212 61.1765 212.107 61.4934 211.707ZM51.1169 225.914C52.3871 226.754 51.2019 225.427 51.1513 225.145C51.1014 224.863 51.7369 224.898 51.1181 224.657C50.5515 224.724 50.9752 225.821 51.1186 225.915C51.118 225.915 51.1174 225.915 51.1169 225.914ZM46.5799 235.453C46.5405 234.788 46.1549 234.664 46.8881 234.306C46.5577 234.142 46.2203 233.975 45.8946 233.814C45.6143 234.278 46.5548 234.784 45.8697 235.106C45.7569 235.159 45.1307 234.54 45.1348 235.078C45.5957 235.19 46.1006 235.327 46.5799 235.453ZM46.7975 232.391C46.521 232.97 48.8282 234.914 48.2676 233.224C48.1831 232.973 47.0048 231.956 46.7975 232.391ZM58.7763 216.825C59.3762 215.942 58.3631 216.755 57.8265 216.772C58.73 214.441 57.801 217.073 56.3516 216.539C56.5769 217.016 57.1527 218 57.696 217.588C57.9216 217.417 57.4821 217.273 57.4913 217.26C57.8322 216.891 58.4463 217.31 58.7763 216.825ZM44.2811 239.611C44.2818 239.564 43.8026 239.368 43.7776 239.203C43.7537 239.038 44.212 238.958 43.952 238.777C43.691 238.594 43.1831 238.993 43.2948 239.267C43.4086 239.54 44.2712 240.031 44.2811 239.611ZM47.4449 236.634C47.3964 235.982 45.3173 235.793 45.2645 235.902C44.8297 236.851 46.9435 236.303 47.4449 236.634ZM60.3121 220.6C60.1379 218.984 58.2106 218.981 56.939 219.175C57.0612 219.369 57.1821 219.566 57.3029 219.759C56.4791 218.719 55.8514 217.373 55.8309 219.542C56.6045 218.796 56.4538 219.711 56.5102 219.752C58.4119 220.998 58.2756 219.139 60.3115 220.601C60.3117 220.601 60.3119 220.6 60.3121 220.6ZM42.8743 241.086C42.653 241.593 42.3943 243.072 43.5766 242.878C43.3465 242.276 43.111 241.681 42.8743 241.086ZM68.5151 199.89C68.6458 199.662 68.7146 199.431 68.7324 199.199C68.8261 198.826 68.7177 198.5 68.5714 198.109C67.9368 198.855 67.7455 198.547 67.5016 198.438C67.1338 198.271 67.3449 198.881 67.2915 198.899C66.5377 199.11 66.309 198.757 66.5858 199.637C66.2608 199.493 65.9342 199.356 65.6104 199.219C65.7081 199.617 65.5913 199.885 65.3815 200.158C65.2195 200.293 65.0051 200.419 64.7676 200.555C66.216 200.039 65.3651 200.504 66.1253 200.922C66.5083 201.19 68.316 200.388 68.5147 199.888C68.5148 199.889 68.515 199.889 68.5151 199.89ZM61.2525 219.584C61.0805 219.333 60.822 219.038 60.6148 218.769C60.6598 218.63 60.7079 218.494 60.7523 218.356C60.9716 218.461 61.1993 218.574 61.412 218.671C61.5661 218.544 61.2365 218.44 61.2365 218.376C61.2376 218.377 61.2387 218.377 61.2399 218.378C61.2417 217.469 61.4478 217.206 62.4075 217.027C61.7587 216.664 61.11 216.301 60.4613 215.939C60.4555 216.095 60.4469 216.251 60.4385 216.407C60.7503 216.668 61.0617 216.929 61.3728 217.19C61.101 217.224 60.8293 217.26 60.5598 217.289C60.6217 217.472 60.6767 217.681 60.743 217.847C58.6214 217.376 60.5642 216.813 59.8225 216.371C59.3406 216.099 58.6463 217.371 58.8682 217.751C58.9013 217.806 60.4034 218.296 59.4334 218.367C59.2802 218.379 56.3683 216.731 58.4272 218.584C58.7187 218.848 60.6634 219.638 61.2525 219.584ZM64.8429 215.368C62.5622 215.098 66.0141 213.426 63.8333 213.78C63.1393 212.988 63.1166 213.059 62.1699 212.981C62.0855 212.973 61.9672 212.619 61.9265 212.622C61.3389 212.705 61.3637 213.199 60.5906 212.789C60.5868 212.894 60.581 212.993 60.5766 213.099C61.493 213.137 61.6775 213.965 62.1733 214.51C62.3975 214.758 62.6047 214.58 62.8027 214.793C62.875 214.872 62.5269 215.091 62.7732 215.242C63.332 215.582 64.2151 215.807 64.8239 215.694C64.8244 215.694 64.825 215.694 64.8256 215.695C64.8353 215.587 64.8354 215.477 64.8429 215.368ZM54.3384 229.881C53.251 229.394 52.6695 229.705 52.7321 228.475C52.5045 228.401 52.2778 228.33 52.0503 228.256C51.9736 228.424 51.8996 228.587 51.8204 228.756C54.5246 231.025 50.6264 229.878 53.0827 230.588C53.3499 230.665 53.315 230.139 53.7212 230.881C53.722 230.881 53.7229 230.881 53.7237 230.88C53.8387 230.253 53.5174 229.973 54.3384 229.881ZM55.6897 226.021C54.2619 223.558 53.5187 226.943 54.3672 226.811C54.4441 226.8 54.7111 225.312 55.6897 226.021ZM51.8864 236.623C52.235 236.115 51.0995 235.397 50.6511 235.205C50.2014 235.012 50.4068 235.629 50.3131 235.638C50.0049 235.665 50.0548 235.252 49.6388 235.278C49.5031 235.287 48.5444 235.975 48.5694 236.047C48.7084 236.446 49.8675 236.66 49.9374 236.792C50.1677 237.222 49.4956 237.229 49.9676 237.59C50.9741 238.36 50.1576 237.14 50.1946 237.035C50.309 236.721 50.9054 237.103 51.1522 236.963C51.3989 236.822 51.2704 236.562 51.4235 236.401C51.4744 236.347 51.8668 236.648 51.8864 236.623ZM50.4819 233.424C51.0275 234.497 52.7795 233.712 52.6703 233.431C52.3432 232.597 50.2225 232.909 50.4819 233.424ZM61.0012 215.66C61.3578 216.536 62.5542 215.612 62.4827 215.12C62.18 215.036 60.8766 215.363 61.0012 215.66ZM60.1258 220.912C60.2017 220.326 58.4036 220.114 58.1986 220.516C59.0064 221.296 58.9464 220.971 59.1342 220.738C59.3221 220.506 60.0672 221.368 60.1258 220.912ZM47.5066 241.79C47.5777 241.696 47.7185 239.618 46.8603 240.372C46.7965 240.426 46.2839 241.661 46.3843 241.828C46.5835 242.168 47.3172 242.028 47.5066 241.79ZM60.1899 223.988C59.5245 223.258 59.6788 223.021 58.5897 222.686C58.5895 222.686 58.5893 222.686 58.5891 222.687C58.6655 221.889 60.6371 223.009 60.676 222.847C60.8105 222.282 59.1523 221.918 58.8706 221.351C58.8921 222.299 58.0705 221.548 57.7032 222.036C57.6215 222.145 57.9025 222.947 58.2097 223.223C58.5175 223.498 59.7058 223.875 60.1899 223.988ZM46.5862 244.155C47.1892 243.717 46.041 242.55 45.4498 243.252C45.1591 243.595 46.2204 244.418 46.5862 244.155ZM62.4667 185.3C62.1866 185.603 61.9098 185.907 61.6375 186.215C61.4281 186.077 61.2145 185.936 61.0028 185.797C61.2104 185.879 61.4184 185.966 61.6251 186.049C61.4976 185.608 61.9944 185.037 62.4661 185.299C62.4663 185.299 62.4665 185.3 62.4667 185.3ZM54.3855 171.912C54.6089 171.54 53.3869 171.841 53.3339 171.932C52.9402 172.615 54.0756 172.429 54.3855 171.912ZM64.6115 216.639C65.1183 216.061 63.1642 215.582 62.828 215.916C63.2892 215.85 64.3224 216.968 64.6115 216.639ZM57.2173 176.664C57.1098 176.808 57.0026 176.953 56.899 177.103C56.9747 176.784 57.0864 176.668 57.2173 176.664ZM49.15 242.373C49.3351 242.347 49.8434 241.699 49.7379 241.512C49.5138 241.121 48.2645 241.145 48.3666 241.636C48.3767 241.691 48.9655 242.396 49.1508 242.371C49.1505 242.372 49.1502 242.372 49.15 242.373ZM62.547 184.075C62.5322 184.086 62.517 184.096 62.5021 184.103C62.517 184.094 62.5319 184.084 62.547 184.075ZM47.4223 156.653C47.3996 156.673 47.3759 156.692 47.3516 156.707C47.3742 156.69 47.3971 156.671 47.4223 156.653ZM53.4628 238.194C55.1987 238.898 54.667 237.858 53.6256 237.821C53.5699 237.821 53.4995 238.139 53.4628 238.194Z" fill="black"/>
</svg>
